<?xml version="1.0" encoding="utf-8"?>
<!-- Generator: Adobe Illustrator 19.0.0, SVG Export Plug-In . SVG Version: 6.00 Build 0)  -->
<svg version="1.1" id="Layer_1" xmlns="http://www.w3.org/2000/svg" xmlns:xlink="http://www.w3.org/1999/xlink" x="0px" y="0px"
	 viewBox="-191 193 16 16" style="enable-background:new -191 193 16 16;" xml:space="preserve">
<style type="text/css">
	.st0{fill:#F9F9FB;}
</style>
<path class="st0" d="M-176.5,193h-13c-0.8,0-1.5,0.7-1.5,1.5v13c0,0.8,0.7,1.5,1.5,1.5h13c0.8,0,1.5-0.7,1.5-1.5v-13
	C-175,193.7-175.7,193-176.5,193z M-180,195.5c0-0.3,0.2-0.5,0.5-0.5h2c0.3,0,0.5,0.2,0.5,0.5v2c0,0.3-0.2,0.5-0.5,0.5h-2
	c-0.3,0-0.5-0.2-0.5-0.5V195.5z M-183,198c1.7,0,3,1.3,3,3s-1.3,3-3,3s-3-1.3-3-3S-184.7,198-183,198z M-177,206.5L-177,206.5
	c0,0.3-0.2,0.5-0.5,0.5h-11c-0.3,0-0.5-0.2-0.5-0.5l0,0V200h1.1c-0.1,0.3-0.1,0.7-0.1,1c0,2.8,2.2,5,5,5s5-2.2,5-5
	c0-0.3,0-0.7-0.1-1h1.1V206.5z"/>
</svg>
