<?xml version="1.0" encoding="utf-8"?>
<!-- Generator: Adobe Illustrator 19.0.0, SVG Export Plug-In . SVG Version: 6.00 Build 0)  -->
<svg version="1.1" id="Layer_1" xmlns="http://www.w3.org/2000/svg" xmlns:xlink="http://www.w3.org/1999/xlink" x="0px" y="0px"
	 viewBox="-191 193 16 16" style="enable-background:new -191 193 16 16;" xml:space="preserve">
<style type="text/css">
	.st0{fill:#F9F9FB;}
</style>
<path class="st0" d="M-183,194.1c-3.8,0-6.9,3.1-6.9,6.9c0,2.9,1.8,5.4,4.4,6.5c-0.1-0.5-0.1-1.4,0-2c0.1-0.5,0.8-3.4,0.8-3.4
	s-0.2-0.4-0.2-1c0-1,0.6-1.7,1.3-1.7c0.6,0,0.9,0.4,0.9,1c0,0.6-0.4,1.5-0.6,2.3c-0.2,0.7,0.3,1.3,1,1.3c1.2,0,2.2-1.3,2.2-3.2
	c0-1.7-1.2-2.8-2.9-2.8c-2,0-3.1,1.5-3.1,3c0,0.6,0.2,1.2,0.5,1.6c0.1,0.1,0.1,0.1,0,0.2c-0.1,0.2-0.2,0.7-0.2,0.8
	c0,0.1-0.1,0.2-0.2,0.1c-0.9-0.4-1.4-1.7-1.4-2.7c0-2.2,1.6-4.2,4.6-4.2c2.4,0,4.3,1.7,4.3,4c0,2.4-1.5,4.3-3.6,4.3
	c-0.7,0-1.4-0.4-1.6-0.8c0,0-0.3,1.3-0.4,1.6c-0.2,0.6-0.6,1.4-0.9,1.8c0.7,0.2,1.3,0.3,2.1,0.3c3.8,0,6.9-3.1,6.9-6.9
	C-176.1,197.2-179.2,194.1-183,194.1L-183,194.1z"/>
</svg>
